<?xml version="1.0" encoding="UTF-8"?>
<svg xmlns="http://www.w3.org/2000/svg" xmlns:xlink="http://www.w3.org/1999/xlink" width="88px" height="50px" viewBox="0 0 88 50" version="1.1">
  <g id="surface1">
    <path style=" stroke:none;fill-rule:nonzero;fill:rgb(100,100,100%);fill-opacity:1;" d="M 1.023438 14.53125 C 0.707031 14.53125 0.394531 14.386719 0.195312 14.109375 C -0.136719 13.652344 -0.0351562 13.007812 0.421875 12.675781 C 0.609375 12.539062 5.082031 9.296875 11.339844 6.597656 C 19.894531 2.902344 29.640625 0.953125 39.523438 0.949219 L 39.53125 0.949219 C 50.066406 0.949219 55.234375 2.347656 59.796875 3.582031 C 60.40625 3.746094 60.980469 3.902344 61.570312 4.054688 C 63.144531 4.464844 64.613281 4.898438 66.03125 5.316406 C 70.199219 6.542969 73.804688 7.609375 78.328125 7.609375 C 78.398438 7.609375 78.472656 7.609375 78.542969 7.609375 C 80.855469 7.589844 82.605469 6.550781 82.804688 5.082031 C 82.84375 4.796875 82.773438 4.246094 82.417969 3.894531 C 82.074219 3.558594 81.503906 3.449219 80.714844 3.578125 C 80.15625 3.664062 79.632812 3.285156 79.546875 2.722656 C 79.457031 2.164062 79.835938 1.636719 80.394531 1.546875 C 82.214844 1.261719 83.277344 1.867188 83.847656 2.429688 C 84.746094 3.3125 84.9375 4.558594 84.832031 5.359375 C 84.488281 7.90625 81.964844 9.636719 78.558594 9.660156 C 73.632812 9.699219 69.660156 8.527344 65.453125 7.285156 C 64.050781 6.871094 62.597656 6.441406 61.054688 6.042969 C 60.457031 5.886719 59.851562 5.722656 59.261719 5.566406 C 54.605469 4.304688 49.792969 3.003906 39.527344 3.003906 L 39.519531 3.003906 C 29.914062 3.003906 20.445312 4.898438 12.140625 8.484375 C 6.109375 11.089844 1.667969 14.304688 1.625 14.335938 C 1.441406 14.46875 1.230469 14.53125 1.023438 14.53125 Z M 1.023438 14.53125 "></path>
    <path style=" stroke:none;fill-rule:nonzero;fill:rgb(100,100%,100%);fill-opacity:1;" d="M 77.234375 5.4375 C 76.957031 5.4375 76.679688 5.324219 76.476562 5.101562 C 75.460938 3.96875 75.375 2.90625 75.480469 2.214844 C 75.605469 1.410156 76.019531 0.824219 76.21875 0.539062 C 76.242188 0.511719 76.261719 0.484375 76.273438 0.464844 C 76.582031 -0.0117188 77.214844 -0.140625 77.6875 0.167969 C 78.160156 0.480469 78.292969 1.117188 77.984375 1.589844 C 77.957031 1.628906 77.925781 1.675781 77.886719 1.730469 C 77.480469 2.304688 77.207031 2.851562 77.996094 3.726562 C 78.371094 4.148438 78.339844 4.796875 77.921875 5.175781 C 77.726562 5.351562 77.480469 5.441406 77.234375 5.441406 Z M 77.234375 5.4375 "></path>
    <path style=" stroke:none;fill-rule:nonzero;fill:rgb(100,100%,100%);fill-opacity:1;" d="M 9.757812 47.308594 C 9.738281 47.308594 9.71875 47.308594 9.699219 47.304688 C 9.234375 47.277344 8.738281 46.902344 8.734375 46.261719 L 8.734375 46.257812 C 8.726562 46.03125 8.613281 44.863281 7.4375 44.644531 C 6.882812 44.539062 6.515625 44.003906 6.621094 43.445312 C 6.722656 42.890625 7.257812 42.523438 7.8125 42.625 C 10.289062 43.089844 10.757812 45.417969 10.78125 46.214844 C 10.78125 46.226562 10.78125 46.242188 10.78125 46.253906 C 10.78125 46.246094 10.78125 46.234375 10.78125 46.222656 C 10.78125 46.300781 10.78125 46.363281 10.773438 46.40625 C 10.710938 46.921875 10.273438 47.308594 9.761719 47.308594 Z M 9.757812 47.308594 "></path>
    <path style=" stroke:none;fill-rule:nonzero;fill:rgb(100,100%,100%);fill-opacity:1;" d="M 73.015625 4.082031 C 73.566406 4.082031 74.015625 3.632812 74.015625 3.078125 C 74.015625 2.523438 73.566406 2.074219 73.015625 2.074219 C 72.460938 2.074219 72.015625 2.523438 72.015625 3.078125 C 72.015625 3.632812 72.460938 4.082031 73.015625 4.082031 Z M 73.015625 4.082031 "></path>
    <path style=" stroke:none;fill-rule:nonzero;fill:rgb(100,100%,100%);fill-opacity:1;" d="M 74.414062 2.453125 C 74.414062 2.453125 74.882812 2.878906 74.496094 3.605469 Z M 74.414062 2.453125 "></path>
    <path style=" stroke:none;fill-rule:nonzero;fill:rgb(100,100%,100%);fill-opacity:1;" d="M 74.496094 3.773438 C 74.46875 3.773438 74.441406 3.765625 74.414062 3.753906 C 74.332031 3.707031 74.300781 3.605469 74.34375 3.523438 C 74.660156 2.933594 74.3125 2.59375 74.296875 2.578125 C 74.226562 2.515625 74.222656 2.40625 74.289062 2.335938 C 74.351562 2.269531 74.457031 2.265625 74.527344 2.328125 C 74.722656 2.503906 75 3.019531 74.644531 3.683594 C 74.613281 3.742188 74.554688 3.773438 74.496094 3.773438 Z M 74.496094 3.773438 "></path>
    <path style=" stroke:none;fill-rule:nonzero;fill:rgb(100,100%,100%);fill-opacity:1;" d="M 85.199219 7.285156 C 85.171875 7.285156 85.148438 7.277344 85.125 7.269531 C 85.039062 7.226562 85.003906 7.125 85.042969 7.039062 C 86.65625 3.691406 84.429688 2.140625 84.332031 2.074219 C 84.253906 2.023438 84.230469 1.917969 84.285156 1.839844 C 84.335938 1.757812 84.441406 1.738281 84.519531 1.789062 C 84.546875 1.808594 87.097656 3.5625 85.351562 7.1875 C 85.324219 7.25 85.261719 7.285156 85.199219 7.285156 Z M 85.199219 7.285156 "></path>
    <path style=" stroke:none;fill-rule:nonzero;fill:rgb(100,100%,100%);fill-opacity:1;" d="M 78.355469 2.988281 C 78.476562 2.988281 78.570312 2.890625 78.570312 2.773438 C 78.570312 2.652344 78.476562 2.558594 78.355469 2.558594 C 78.238281 2.558594 78.144531 2.652344 78.144531 2.773438 C 78.144531 2.890625 78.238281 2.988281 78.355469 2.988281 Z M 78.355469 2.988281 "></path>
    <path style=" stroke:none;fill-rule:nonzero;fill:rgb(100,100%,100%);fill-opacity:1;" d="M 3.339844 50 C 2.246094 50 1.277344 49.519531 0.6875 48.671875 C -1.117188 46.066406 0.792969 42.449219 5.925781 38.757812 C 10.039062 35.792969 18.277344 32.285156 25.515625 30.414062 C 33.480469 28.355469 44.472656 28.507812 53.523438 30.808594 C 60.25 32.515625 64.347656 33.859375 71.058594 36.554688 C 80.136719 40.203125 83.246094 38.410156 83.273438 38.390625 C 83.746094 38.074219 84.378906 38.207031 84.691406 38.675781 C 85.003906 39.148438 84.875 39.785156 84.402344 40.097656 C 84.015625 40.355469 80.335938 42.496094 70.296875 38.460938 C 63.683594 35.800781 59.648438 34.480469 53.023438 32.796875 C 44.28125 30.578125 33.679688 30.421875 26.023438 32.402344 C 19.003906 34.21875 11.050781 37.589844 7.113281 40.425781 C 4.144531 42.5625 1.121094 45.699219 2.367188 47.5 C 2.699219 47.980469 3.3125 47.964844 3.558594 47.933594 C 4.121094 47.867188 4.890625 47.484375 5.210938 46.644531 C 5.414062 46.113281 6.007812 45.847656 6.53125 46.050781 C 7.058594 46.253906 7.324219 46.847656 7.121094 47.378906 C 6.582031 48.796875 5.3125 49.789062 3.804688 49.972656 C 3.644531 49.992188 3.492188 50 3.335938 50 Z M 3.339844 50 "></path>
    <path style=" stroke:none;fill-rule:nonzero;fill:rgb(100,100%,100%);fill-opacity:1;" d="M 7.808594 46.40625 C 7.71875 46.40625 7.640625 46.332031 7.640625 46.238281 C 7.625 45.613281 7.113281 45.546875 7.054688 45.539062 C 6.960938 45.53125 6.890625 45.449219 6.898438 45.355469 C 6.90625 45.261719 6.988281 45.191406 7.082031 45.199219 C 7.386719 45.222656 7.960938 45.472656 7.980469 46.230469 C 7.984375 46.324219 7.90625 46.402344 7.816406 46.40625 Z M 7.808594 46.40625 "></path>
    <path style=" stroke:none;fill-rule:nonzero;fill:rgb(100,100%,100%);fill-opacity:1;" d="M 10.769531 43.984375 C 10.675781 43.984375 10.597656 43.910156 10.597656 43.816406 C 10.597656 43.171875 10.054688 43.105469 10.03125 43.101562 C 9.9375 43.09375 9.871094 43.007812 9.878906 42.914062 C 9.890625 42.820312 9.972656 42.753906 10.066406 42.761719 C 10.367188 42.792969 10.9375 43.054688 10.941406 43.8125 C 10.941406 43.910156 10.863281 43.984375 10.769531 43.984375 Z M 10.769531 43.984375 "></path>
    <path style=" stroke:none;fill-rule:nonzero;fill:rgb(100,100%,100%);fill-opacity:1;" d="M 13.523438 41.90625 C 13.523438 41.90625 13.515625 41.90625 13.515625 41.90625 C 13.417969 41.898438 13.347656 41.816406 13.355469 41.722656 C 13.390625 41.167969 12.949219 41.0625 12.898438 41.054688 C 12.808594 41.035156 12.746094 40.945312 12.765625 40.851562 C 12.785156 40.761719 12.871094 40.699219 12.960938 40.71875 C 13.234375 40.769531 13.738281 41.046875 13.695312 41.746094 C 13.691406 41.835938 13.613281 41.90625 13.523438 41.90625 Z M 13.523438 41.90625 "></path>
    <path style=" stroke:none;fill-rule:nonzero;fill:rgb(100,100%,100%);fill-opacity:1;" d="M 11.929688 43.246094 C 12.484375 43.246094 12.929688 42.796875 12.929688 42.242188 C 12.929688 41.6875 12.484375 41.238281 11.929688 41.238281 C 11.378906 41.238281 10.929688 41.6875 10.929688 42.242188 C 10.929688 42.796875 11.378906 43.246094 11.929688 43.246094 Z M 11.929688 43.246094 "></path>
    <path style=" stroke:none;fill-rule:nonzero;fill:rgb(100,100%,100%);fill-opacity:1;" d="M 85.367188 40.0625 C 85.324219 40.0625 85.285156 40.050781 85.25 40.019531 C 85.183594 39.957031 85.179688 39.847656 85.238281 39.777344 C 85.511719 39.476562 85.640625 39.175781 85.625 38.878906 C 85.597656 38.449219 85.261719 38.160156 85.257812 38.15625 C 85.1875 38.097656 85.175781 37.988281 85.238281 37.914062 C 85.296875 37.84375 85.402344 37.832031 85.476562 37.894531 C 85.496094 37.910156 85.925781 38.273438 85.964844 38.855469 C 85.988281 39.246094 85.832031 39.636719 85.492188 40.007812 C 85.460938 40.046875 85.414062 40.066406 85.367188 40.066406 Z M 85.367188 40.0625 "></path>
    <path style=" stroke:none;fill-rule:nonzero;fill:rgb(100,100%,100%);fill-opacity:1;" d="M 19.625 28.519531 L 19.140625 28.695312 L 19.140625 9.515625 L 19.945312 9.300781 C 20.488281 9.152344 20.816406 8.589844 20.667969 8.042969 C 20.523438 7.496094 19.964844 7.167969 19.417969 7.316406 L 15.96875 8.238281 C 15.425781 8.382812 15.101562 8.945312 15.246094 9.496094 C 15.367188 9.953125 15.78125 10.257812 16.234375 10.257812 C 16.320312 10.257812 16.410156 10.246094 16.496094 10.222656 L 16.578125 10.199219 L 11.355469 26.289062 L 6.875 15.074219 L 7.371094 14.746094 C 7.84375 14.4375 7.976562 13.800781 7.667969 13.328125 C 7.359375 12.851562 6.726562 12.71875 6.253906 13.027344 L 3.210938 15.019531 C 2.738281 15.332031 2.605469 15.964844 2.914062 16.441406 C 3.109375 16.742188 3.4375 16.90625 3.769531 16.90625 C 3.960938 16.90625 4.15625 16.851562 4.328125 16.738281 L 4.640625 16.535156 L 4.640625 35.796875 L 3.753906 36.347656 C 3.277344 36.644531 3.128906 37.277344 3.425781 37.761719 C 3.621094 38.074219 3.953125 38.246094 4.296875 38.246094 C 4.480469 38.246094 4.667969 38.195312 4.835938 38.089844 L 7.839844 36.214844 C 8.316406 35.917969 8.464844 35.285156 8.167969 34.800781 C 7.871094 34.320312 7.238281 34.171875 6.757812 34.472656 L 6.683594 34.519531 L 6.683594 20.113281 L 10.089844 28.648438 C 9.296875 29.066406 8.84375 29.726562 8.679688 30.160156 C 8.476562 30.6875 8.742188 31.28125 9.269531 31.484375 C 9.390625 31.53125 9.515625 31.550781 9.636719 31.550781 C 10.046875 31.550781 10.433594 31.300781 10.589844 30.894531 C 10.59375 30.886719 10.816406 30.390625 11.558594 30.3125 C 13.664062 30.09375 14.273438 29.296875 14.441406 28.96875 C 14.691406 28.460938 14.488281 27.84375 13.980469 27.589844 C 13.6875 27.445312 13.359375 27.453125 13.082031 27.582031 L 17.09375 15.230469 L 17.09375 29.441406 L 16.164062 29.78125 C 15.636719 29.972656 15.359375 30.5625 15.554688 31.097656 C 15.707031 31.511719 16.097656 31.769531 16.515625 31.769531 C 16.632812 31.769531 16.75 31.75 16.867188 31.707031 L 20.320312 30.445312 C 20.851562 30.25 21.125 29.660156 20.933594 29.128906 C 20.738281 28.597656 20.152344 28.320312 19.621094 28.515625 Z M 19.625 28.519531 "></path>
    <path style=" stroke:none;fill-rule:nonzero;fill:rgb(100,100%,100%);fill-opacity:1;" d="M 7.71875 33.644531 L 7.65625 24.222656 C 7.65625 24.128906 7.582031 24.050781 7.488281 24.050781 C 7.394531 24.050781 7.316406 24.128906 7.316406 24.222656 L 7.378906 33.835938 C 7.378906 33.882812 7.402344 33.933594 7.441406 33.964844 C 7.480469 33.996094 7.53125 34.007812 7.578125 34 C 7.585938 34 8.179688 33.898438 8.566406 34.253906 C 8.839844 34.503906 8.957031 34.925781 8.910156 35.511719 C 8.90625 35.605469 8.972656 35.6875 9.066406 35.695312 C 9.074219 35.695312 9.078125 35.695312 9.082031 35.695312 C 9.171875 35.695312 9.242188 35.625 9.25 35.539062 C 9.304688 34.839844 9.148438 34.320312 8.792969 33.996094 C 8.4375 33.675781 7.976562 33.636719 7.71875 33.644531 Z M 7.71875 33.644531 "></path>
    <path style=" stroke:none;fill-rule:nonzero;fill:rgb(100,100%,100%);fill-opacity:1;" d="M 8.511719 14.222656 C 8.449219 14.570312 8.207031 14.859375 7.789062 15.09375 C 7.714844 15.136719 7.683594 15.226562 7.714844 15.304688 L 11.097656 23.71875 C 11.125 23.785156 11.1875 23.824219 11.257812 23.824219 C 11.277344 23.824219 11.300781 23.820312 11.320312 23.8125 C 11.40625 23.777344 11.449219 23.679688 11.414062 23.589844 L 8.085938 15.316406 C 8.519531 15.042969 8.773438 14.695312 8.847656 14.285156 C 8.992188 13.46875 8.355469 12.71875 8.328125 12.6875 C 8.265625 12.613281 8.160156 12.605469 8.089844 12.667969 C 8.015625 12.730469 8.007812 12.839844 8.070312 12.910156 C 8.074219 12.917969 8.628906 13.570312 8.511719 14.222656 Z M 8.511719 14.222656 "></path>
    <path style=" stroke:none;fill-rule:nonzero;fill:rgb(100,100%,100%);fill-opacity:1;" d="M 14.449219 26.78125 L 16.441406 20.695312 C 16.472656 20.601562 16.421875 20.507812 16.332031 20.476562 C 16.242188 20.449219 16.148438 20.496094 16.117188 20.585938 L 14.058594 26.878906 C 14.042969 26.929688 14.050781 26.988281 14.085938 27.035156 C 14.121094 27.078125 14.171875 27.105469 14.226562 27.105469 C 14.230469 27.105469 14.625 27.09375 14.878906 27.371094 C 15.074219 27.582031 15.148438 27.90625 15.105469 28.339844 C 15.09375 28.433594 15.164062 28.519531 15.257812 28.527344 C 15.261719 28.527344 15.269531 28.527344 15.277344 28.527344 C 15.363281 28.527344 15.4375 28.464844 15.445312 28.375 C 15.5 27.835938 15.394531 27.417969 15.128906 27.132812 C 14.914062 26.902344 14.640625 26.816406 14.453125 26.78125 Z M 14.449219 26.78125 "></path>
    <path style=" stroke:none;fill-rule:nonzero;fill:rgb(100,100%,100%);fill-opacity:1;" d="M 21.394531 28.011719 C 20.996094 27.636719 20.457031 27.601562 20.171875 27.617188 L 20.035156 10.246094 C 20.65625 10.160156 21.113281 9.914062 21.382812 9.507812 C 21.878906 8.773438 21.585938 7.804688 21.574219 7.765625 C 21.546875 7.671875 21.453125 7.625 21.363281 7.652344 C 21.273438 7.679688 21.222656 7.773438 21.25 7.863281 C 21.25 7.871094 21.503906 8.722656 21.101562 9.316406 C 20.867188 9.667969 20.445312 9.867188 19.851562 9.917969 C 19.761719 9.925781 19.695312 10 19.695312 10.089844 L 19.832031 27.804688 C 19.832031 27.855469 19.855469 27.902344 19.894531 27.933594 C 19.933594 27.96875 19.984375 27.980469 20.035156 27.972656 C 20.039062 27.96875 20.726562 27.851562 21.160156 28.261719 C 21.46875 28.546875 21.582031 29.039062 21.503906 29.722656 C 21.492188 29.8125 21.558594 29.898438 21.652344 29.910156 C 21.660156 29.910156 21.667969 29.910156 21.675781 29.910156 C 21.757812 29.910156 21.832031 29.847656 21.84375 29.757812 C 21.933594 28.964844 21.785156 28.375 21.394531 28.007812 Z M 21.394531 28.011719 "></path>
    <path style=" stroke:none;fill-rule:nonzero;fill:rgb(100,100%,100%);fill-opacity:1;" d="M 33.9375 23.652344 C 33.375 23.644531 32.90625 24.09375 32.898438 24.660156 L 32.875 25.960938 C 31.691406 26.089844 28.410156 26.34375 25.945312 26.914062 L 25.945312 23.019531 C 27.425781 23.117188 28.160156 22.488281 28.488281 22.199219 C 28.816406 22.03125 29.046875 21.6875 29.046875 21.285156 C 29.046875 20.71875 28.589844 20.257812 28.023438 20.257812 C 27.589844 20.257812 27.3125 20.5 27.148438 20.648438 C 26.96875 20.808594 26.691406 21.050781 25.945312 20.960938 L 25.945312 7.796875 L 31.710938 6.894531 L 31.710938 8.0625 C 31.710938 8.628906 32.167969 9.089844 32.734375 9.089844 C 33.296875 9.089844 33.757812 8.628906 33.757812 8.0625 L 33.757812 5.695312 C 33.757812 5.394531 33.625 5.109375 33.398438 4.914062 C 33.171875 4.71875 32.871094 4.632812 32.574219 4.679688 L 23.15625 6.15625 C 22.597656 6.242188 22.214844 6.769531 22.300781 7.328125 C 22.390625 7.886719 22.914062 8.269531 23.46875 8.183594 L 23.898438 8.117188 L 23.898438 20.667969 C 23.078125 20.746094 22.210938 21.1875 21.519531 22.378906 C 21.503906 22.40625 21.492188 22.425781 21.480469 22.445312 C 21.179688 22.925781 21.324219 23.558594 21.804688 23.859375 C 21.972656 23.96875 22.160156 24.019531 22.347656 24.019531 C 22.6875 24.019531 23.019531 23.847656 23.214844 23.539062 C 23.234375 23.503906 23.261719 23.460938 23.289062 23.410156 C 23.480469 23.078125 23.65625 22.855469 23.898438 22.761719 L 23.898438 27.441406 C 23.726562 27.488281 23.554688 27.539062 23.386719 27.589844 C 22.84375 27.753906 22.539062 28.328125 22.699219 28.867188 C 22.832031 29.3125 23.238281 29.601562 23.679688 29.601562 C 23.777344 29.601562 23.875 29.585938 23.972656 29.558594 C 28.378906 28.230469 33.914062 27.925781 33.957031 27.921875 C 34.484375 27.882812 34.898438 27.445312 34.90625 26.914062 L 34.941406 24.695312 C 34.949219 24.128906 34.5 23.660156 33.9375 23.652344 Z M 33.9375 23.652344 "></path>
    <path style=" stroke:none;fill-rule:nonzero;fill:rgb(100,100%,100%);fill-opacity:1;" d="M 34.480469 4.878906 C 34.386719 4.878906 34.308594 4.953125 34.308594 5.046875 L 34.308594 8.0625 C 34.308594 8.15625 34.386719 8.234375 34.480469 8.234375 C 34.574219 8.234375 34.648438 8.15625 34.648438 8.0625 L 34.648438 5.046875 C 34.648438 4.953125 34.574219 4.878906 34.480469 4.878906 Z M 34.480469 4.878906 "></path>
    <path style=" stroke:none;fill-rule:nonzero;fill:rgb(100,100%,100%);fill-opacity:1;" d="M 26.589844 8.601562 L 26.589844 19.808594 C 26.589844 19.90625 26.664062 19.980469 26.757812 19.980469 C 26.855469 19.980469 26.929688 19.90625 26.929688 19.808594 L 26.929688 8.601562 C 26.929688 8.507812 26.855469 8.429688 26.757812 8.429688 C 26.664062 8.429688 26.589844 8.507812 26.589844 8.601562 Z M 26.589844 8.601562 "></path>
    <path style=" stroke:none;fill-rule:nonzero;fill:rgb(100,100%,100%);fill-opacity:1;" d="M 29.414062 22.273438 C 29.445312 22.296875 29.480469 22.308594 29.515625 22.308594 C 29.566406 22.308594 29.617188 22.285156 29.652344 22.242188 C 30.457031 21.171875 29.660156 20.09375 29.652344 20.082031 C 29.59375 20.007812 29.488281 19.992188 29.414062 20.050781 C 29.339844 20.105469 29.324219 20.214844 29.378906 20.289062 C 29.40625 20.324219 30.027344 21.175781 29.378906 22.035156 C 29.324219 22.109375 29.335938 22.21875 29.414062 22.273438 Z M 29.414062 22.273438 "></path>
    <path style=" stroke:none;fill-rule:nonzero;fill:rgb(100,100%,100%);fill-opacity:1;" d="M 26.589844 23.824219 L 26.589844 26.011719 C 26.589844 26.109375 26.664062 26.183594 26.757812 26.183594 C 26.855469 26.183594 26.929688 26.109375 26.929688 26.011719 L 26.929688 23.824219 C 26.929688 23.726562 26.855469 23.652344 26.757812 23.652344 C 26.664062 23.652344 26.589844 23.726562 26.589844 23.824219 Z M 26.589844 23.824219 "></path>
    <path style=" stroke:none;fill-rule:nonzero;fill:rgb(100,100%,100%);fill-opacity:1;" d="M 35.574219 23.992188 C 35.476562 23.992188 35.402344 24.066406 35.402344 24.160156 L 35.402344 27.160156 C 35.402344 27.253906 35.476562 27.332031 35.574219 27.332031 C 35.667969 27.332031 35.742188 27.253906 35.742188 27.160156 L 35.742188 24.160156 C 35.742188 24.066406 35.667969 23.992188 35.574219 23.992188 Z M 35.574219 23.992188 "></path>
    <path style=" stroke:none;fill-rule:nonzero;fill:rgb(100,100%,100%);fill-opacity:1;" d="M 49.933594 26.527344 L 49.140625 26.433594 L 49.769531 7.105469 L 50.304688 7.144531 C 50.328125 7.148438 50.355469 7.148438 50.378906 7.148438 C 50.910156 7.148438 51.359375 6.734375 51.398438 6.195312 C 51.441406 5.628906 51.015625 5.136719 50.453125 5.097656 L 47.28125 4.867188 C 46.71875 4.824219 46.226562 5.25 46.1875 5.816406 C 46.144531 6.382812 46.570312 6.875 47.132812 6.914062 L 47.726562 6.957031 L 47.304688 19.988281 L 41.167969 19.773438 C 38.699219 19.703125 38.714844 18.949219 38.765625 16.464844 C 38.769531 16.285156 38.773438 16.101562 38.777344 15.917969 L 39.066406 6.175781 L 39.652344 6.175781 C 40.214844 6.175781 40.671875 5.71875 40.671875 5.152344 C 40.671875 4.585938 40.214844 4.125 39.652344 4.125 L 36.433594 4.125 C 35.871094 4.125 35.410156 4.585938 35.410156 5.152344 C 35.410156 5.71875 35.871094 6.175781 36.433594 6.175781 L 37.019531 6.175781 L 36.734375 15.863281 C 36.734375 15.863281 36.734375 15.875 36.734375 15.882812 C 36.730469 16.066406 36.726562 16.246094 36.722656 16.425781 C 36.695312 17.746094 36.671875 18.992188 37.222656 20 C 38.074219 21.558594 39.851562 21.789062 41.105469 21.824219 L 47.238281 22.042969 L 47.101562 26.195312 L 46.535156 26.125 C 45.972656 26.058594 45.464844 26.460938 45.398438 27.027344 C 45.332031 27.589844 45.734375 28.097656 46.296875 28.164062 L 49.695312 28.566406 C 49.738281 28.570312 49.777344 28.574219 49.816406 28.574219 C 50.328125 28.574219 50.769531 28.1875 50.832031 27.667969 C 50.898438 27.105469 50.496094 26.59375 49.933594 26.527344 Z M 49.933594 26.527344 "></path>
    <path style=" stroke:none;fill-rule:nonzero;fill:rgb(100,100%,100%);fill-opacity:1;" d="M 39.6875 6.875 L 39.417969 17.546875 C 39.417969 17.644531 39.492188 17.722656 39.585938 17.722656 C 39.585938 17.722656 39.589844 17.722656 39.589844 17.722656 C 39.679688 17.722656 39.757812 17.648438 39.761719 17.558594 L 40.023438 7.03125 C 40.5 6.960938 40.867188 6.761719 41.125 6.441406 C 41.597656 5.847656 41.503906 5.0625 41.5 5.027344 C 41.484375 4.933594 41.402344 4.867188 41.308594 4.878906 C 41.214844 4.890625 41.148438 4.976562 41.160156 5.070312 C 41.160156 5.078125 41.238281 5.746094 40.855469 6.226562 C 40.632812 6.507812 40.292969 6.667969 39.839844 6.707031 C 39.753906 6.71875 39.6875 6.789062 39.6875 6.875 Z M 39.6875 6.875 "></path>
    <path style=" stroke:none;fill-rule:nonzero;fill:rgb(100,100%,100%);fill-opacity:1;" d="M 51.816406 7.449219 C 52.359375 6.871094 52.300781 5.917969 52.296875 5.878906 C 52.289062 5.78125 52.207031 5.710938 52.117188 5.71875 C 52.023438 5.726562 51.949219 5.808594 51.957031 5.902344 C 51.957031 5.910156 52.007812 6.746094 51.566406 7.214844 C 51.367188 7.429688 51.089844 7.535156 50.742188 7.535156 C 50.738281 7.535156 50.730469 7.535156 50.726562 7.535156 C 50.636719 7.535156 50.558594 7.609375 50.558594 7.703125 L 49.949219 25.757812 C 49.945312 25.847656 50.015625 25.925781 50.105469 25.933594 C 50.113281 25.933594 50.6875 25.980469 51.023438 26.441406 C 51.289062 26.804688 51.339844 27.328125 51.175781 27.996094 C 51.15625 28.089844 51.210938 28.183594 51.300781 28.203125 C 51.316406 28.207031 51.328125 28.207031 51.34375 28.207031 C 51.421875 28.207031 51.488281 28.15625 51.507812 28.078125 C 51.695312 27.304688 51.625 26.6875 51.300781 26.238281 C 50.988281 25.8125 50.535156 25.664062 50.292969 25.617188 L 50.890625 7.871094 C 51.269531 7.84375 51.582031 7.699219 51.816406 7.449219 Z M 51.816406 7.449219 "></path>
    <path style=" stroke:none;fill-rule:nonzero;fill:rgb(100,100%,100%);fill-opacity:1;" d="M 68.75 9.519531 L 60.839844 7.410156 C 60.839844 7.410156 60.835938 7.410156 60.832031 7.40625 L 54.226562 5.644531 C 53.921875 5.5625 53.59375 5.628906 53.339844 5.824219 C 53.089844 6.019531 52.941406 6.320312 52.941406 6.636719 L 52.941406 8.574219 C 52.941406 9.140625 53.402344 9.601562 53.964844 9.601562 C 54.53125 9.601562 54.988281 9.140625 54.988281 8.574219 L 54.988281 7.972656 L 59.496094 9.175781 L 58.742188 21.519531 C 57.527344 21.539062 56.625 22.339844 56.265625 23.015625 C 55.953125 23.605469 56.203125 24.171875 56.613281 24.425781 C 57.015625 24.679688 57.628906 24.65625 58.011719 24.121094 C 58.066406 24.046875 58.105469 23.96875 58.136719 23.890625 C 58.222656 23.78125 58.378906 23.636719 58.617188 23.585938 L 58.308594 28.636719 L 57.828125 28.492188 C 57.285156 28.332031 56.714844 28.636719 56.554688 29.183594 C 56.390625 29.726562 56.699219 30.296875 57.242188 30.460938 L 60.507812 31.4375 C 60.605469 31.46875 60.707031 31.484375 60.800781 31.484375 C 61.242188 31.484375 61.648438 31.195312 61.78125 30.75 C 61.941406 30.207031 61.636719 29.632812 61.09375 29.472656 L 60.320312 29.238281 L 60.613281 24.453125 C 60.90625 24.542969 61.199219 24.585938 61.496094 24.585938 C 61.894531 24.585938 62.296875 24.503906 62.691406 24.339844 L 62.714844 24.328125 C 63.226562 24.167969 63.53125 23.632812 63.402344 23.105469 C 63.269531 22.554688 62.714844 22.21875 62.167969 22.351562 C 62.0625 22.375 61.980469 22.410156 61.910156 22.441406 C 61.710938 22.523438 61.367188 22.664062 60.746094 22.265625 L 61.511719 9.710938 L 67.464844 11.300781 L 67.464844 12.769531 C 67.464844 13.339844 67.921875 13.796875 68.488281 13.796875 C 69.050781 13.796875 69.511719 13.339844 69.511719 12.769531 L 69.511719 10.511719 C 69.511719 10.046875 69.195312 9.636719 68.75 9.519531 Z M 68.75 9.519531 "></path>
    <path style=" stroke:none;fill-rule:nonzero;fill:rgb(100,100%,100%);fill-opacity:1;" d="M 55.570312 8.824219 C 55.480469 8.851562 55.429688 8.949219 55.457031 9.039062 C 55.472656 9.09375 55.601562 9.582031 55.101562 9.757812 C 55.015625 9.789062 54.96875 9.886719 55 9.976562 C 55.023438 10.046875 55.089844 10.089844 55.160156 10.089844 C 55.179688 10.089844 55.195312 10.085938 55.214844 10.082031 C 55.871094 9.847656 55.875 9.234375 55.78125 8.9375 C 55.753906 8.847656 55.660156 8.796875 55.570312 8.824219 Z M 55.570312 8.824219 "></path>
    <path style=" stroke:none;fill-rule:nonzero;fill:rgb(100,100%,100%);fill-opacity:1;" d="M 62.171875 11.042969 L 61.582031 21.527344 C 61.574219 21.621094 61.648438 21.703125 61.742188 21.707031 C 61.742188 21.707031 61.746094 21.707031 61.75 21.707031 C 61.839844 21.707031 61.914062 21.636719 61.921875 21.542969 L 62.511719 11.058594 C 62.519531 10.964844 62.445312 10.882812 62.351562 10.878906 C 62.257812 10.875 62.179688 10.945312 62.171875 11.039062 Z M 62.171875 11.042969 "></path>
    <path style=" stroke:none;fill-rule:nonzero;fill:rgb(100,100%,100%);fill-opacity:1;" d="M 70.269531 10.328125 C 70.175781 10.328125 70.097656 10.402344 70.097656 10.496094 L 70.097656 13.050781 C 70.097656 13.144531 70.175781 13.21875 70.269531 13.21875 C 70.363281 13.21875 70.4375 13.144531 70.4375 13.050781 L 70.4375 10.496094 C 70.4375 10.402344 70.363281 10.328125 70.269531 10.328125 Z M 70.269531 10.328125 "></path>
    <path style=" stroke:none;fill-rule:nonzero;fill:rgb(100,100%,100%);fill-opacity:1;" d="M 64.035156 22.382812 C 63.964844 22.324219 63.855469 22.332031 63.796875 22.402344 C 63.734375 22.476562 63.742188 22.585938 63.816406 22.644531 C 63.84375 22.667969 64.453125 23.199219 63.875 23.980469 C 63.820312 24.058594 63.835938 24.164062 63.910156 24.222656 C 63.941406 24.246094 63.976562 24.253906 64.011719 24.253906 C 64.066406 24.253906 64.117188 24.230469 64.148438 24.183594 C 64.761719 23.355469 64.34375 22.640625 64.039062 22.382812 Z M 64.035156 22.382812 "></path>
    <path style=" stroke:none;fill-rule:nonzero;fill:rgb(100,100%,100%);fill-opacity:1;" d="M 62.171875 31.886719 C 62.144531 31.886719 62.113281 31.878906 62.085938 31.863281 C 62.003906 31.816406 61.976562 31.714844 62.023438 31.632812 C 62.464844 30.84375 62.570312 30.203125 62.34375 29.726562 C 62.039062 29.085938 61.203125 28.941406 61.195312 28.941406 C 61.109375 28.929688 61.046875 28.847656 61.050781 28.761719 L 61.285156 25.371094 C 61.292969 25.277344 61.375 25.207031 61.464844 25.214844 C 61.5625 25.222656 61.632812 25.300781 61.625 25.394531 L 61.402344 28.636719 C 61.699219 28.71875 62.351562 28.957031 62.652344 29.578125 C 62.929688 30.160156 62.820312 30.90625 62.320312 31.800781 C 62.285156 31.855469 62.230469 31.886719 62.167969 31.886719 Z M 62.171875 31.886719 "></path>
    <path style=" stroke:none;fill-rule:nonzero;fill:rgb(100,100%,100%);fill-opacity:1;" d="M 81 35.71875 L 80.253906 35.539062 L 79.679688 27.835938 L 81.515625 25.753906 C 81.890625 25.332031 81.851562 24.683594 81.429688 24.308594 C 81.003906 23.929688 80.359375 23.972656 79.984375 24.394531 L 79.46875 24.980469 L 78.628906 13.675781 L 79.253906 13.792969 C 79.316406 13.804688 79.378906 13.8125 79.441406 13.8125 C 79.925781 13.8125 80.351562 13.46875 80.445312 12.972656 C 80.546875 12.414062 80.183594 11.878906 79.628906 11.777344 L 77.808594 11.433594 C 77.789062 11.429688 77.765625 11.421875 77.746094 11.417969 C 77.691406 11.402344 77.632812 11.394531 77.582031 11.390625 L 75.445312 10.992188 C 74.890625 10.886719 74.355469 11.253906 74.253906 11.8125 C 74.148438 12.367188 74.515625 12.90625 75.070312 13.007812 L 75.878906 13.160156 L 70.054688 22.976562 L 69.511719 21.433594 C 69.324219 20.902344 68.738281 20.621094 68.207031 20.8125 C 67.675781 21 67.394531 21.585938 67.585938 22.121094 L 68.699219 25.269531 L 65.367188 30.882812 L 64.9375 30.722656 C 64.410156 30.523438 63.820312 30.792969 63.621094 31.324219 C 63.421875 31.855469 63.691406 32.445312 64.21875 32.644531 L 67.160156 33.753906 C 67.28125 33.796875 67.402344 33.816406 67.519531 33.816406 C 67.933594 33.816406 68.324219 33.5625 68.476562 33.152344 C 68.675781 32.621094 68.410156 32.03125 67.878906 31.832031 L 67.3125 31.617188 L 69.585938 27.785156 L 71.90625 34.347656 C 72.027344 34.6875 72.320312 34.941406 72.671875 35.011719 C 72.738281 35.023438 72.804688 35.03125 72.867188 35.03125 C 73.15625 35.03125 73.4375 34.90625 73.632812 34.683594 L 77.789062 29.980469 L 78.167969 35.039062 L 77.597656 34.902344 C 77.046875 34.769531 76.496094 35.109375 76.363281 35.660156 C 76.230469 36.210938 76.570312 36.765625 77.117188 36.894531 L 80.523438 37.714844 C 80.605469 37.734375 80.683594 37.746094 80.765625 37.746094 C 81.226562 37.746094 81.644531 37.429688 81.757812 36.957031 C 81.890625 36.40625 81.550781 35.851562 81.003906 35.71875 Z M 73.253906 32.019531 L 70.945312 25.492188 L 76.734375 15.734375 L 77.578125 27.125 Z M 73.253906 32.019531 "></path>
    <path style=" stroke:none;fill-rule:nonzero;fill:rgb(100,100%,100%);fill-opacity:1;" d="M 70 21.378906 C 70.027344 21.449219 70.089844 21.488281 70.160156 21.488281 C 70.179688 21.488281 70.199219 21.484375 70.21875 21.476562 C 70.308594 21.445312 70.351562 21.34375 70.316406 21.257812 L 70.042969 20.542969 C 70.007812 20.453125 69.910156 20.410156 69.820312 20.445312 C 69.734375 20.476562 69.6875 20.578125 69.722656 20.664062 Z M 70 21.378906 "></path>
    <path style=" stroke:none;fill-rule:nonzero;fill:rgb(100,100%,100%);fill-opacity:1;" d="M 79.613281 14.507812 C 79.558594 14.496094 79.507812 14.511719 79.464844 14.546875 C 79.425781 14.582031 79.40625 14.636719 79.410156 14.6875 L 80.121094 23.480469 C 80.128906 23.570312 80.203125 23.640625 80.289062 23.640625 C 80.296875 23.640625 80.300781 23.640625 80.304688 23.640625 C 80.398438 23.632812 80.46875 23.550781 80.460938 23.453125 L 79.765625 14.863281 C 80.027344 14.875 80.480469 14.832031 80.878906 14.523438 C 81.324219 14.175781 81.570312 13.59375 81.609375 12.792969 C 81.613281 12.699219 81.542969 12.617188 81.449219 12.613281 C 81.351562 12.605469 81.273438 12.679688 81.269531 12.773438 C 81.234375 13.46875 81.03125 13.964844 80.671875 14.25 C 80.207031 14.617188 79.617188 14.507812 79.613281 14.507812 Z M 79.613281 14.507812 "></path>
    <path style=" stroke:none;fill-rule:nonzero;fill:rgb(100,100%,100%);fill-opacity:1;" d="M 82.5625 35.722656 C 82.195312 35.117188 81.511719 34.910156 81.214844 34.847656 L 80.683594 28.296875 L 82.171875 26.644531 C 82.234375 26.578125 82.230469 26.46875 82.160156 26.40625 C 82.089844 26.339844 81.984375 26.347656 81.917969 26.417969 L 80.382812 28.125 C 80.351562 28.160156 80.335938 28.207031 80.339844 28.253906 L 80.886719 35.007812 C 80.890625 35.089844 80.953125 35.15625 81.035156 35.164062 C 81.042969 35.164062 81.894531 35.277344 82.269531 35.902344 C 82.515625 36.308594 82.511719 36.851562 82.265625 37.511719 C 82.234375 37.601562 82.277344 37.699219 82.367188 37.734375 C 82.386719 37.738281 82.40625 37.742188 82.425781 37.742188 C 82.496094 37.742188 82.558594 37.703125 82.585938 37.632812 C 82.871094 36.867188 82.863281 36.222656 82.558594 35.722656 Z M 82.5625 35.722656 "></path>
    <path style=" stroke:none;fill-rule:nonzero;fill:rgb(100,100%,100%);fill-opacity:1;" d="M 77.441406 31.703125 C 77.371094 31.640625 77.261719 31.648438 77.203125 31.722656 L 74.503906 34.882812 C 74.441406 34.953125 74.449219 35.0625 74.519531 35.125 C 74.550781 35.152344 74.59375 35.164062 74.632812 35.164062 C 74.679688 35.164062 74.726562 35.144531 74.761719 35.105469 L 77.460938 31.945312 C 77.523438 31.875 77.515625 31.765625 77.441406 31.703125 Z M 77.441406 31.703125 "></path>
    <path style=" stroke:none;fill-rule:nonzero;fill:rgb(100,100%,100%);fill-opacity:1;" d="M 76.085938 18.472656 C 76.003906 18.425781 75.902344 18.453125 75.851562 18.535156 L 71.769531 25.546875 C 71.746094 25.589844 71.742188 25.640625 71.757812 25.6875 L 73.257812 30.183594 C 73.28125 30.253906 73.347656 30.300781 73.421875 30.300781 C 73.4375 30.300781 73.457031 30.296875 73.476562 30.289062 C 73.566406 30.261719 73.613281 30.164062 73.582031 30.074219 L 72.105469 25.652344 L 76.148438 18.707031 C 76.195312 18.625 76.167969 18.519531 76.085938 18.472656 Z M 76.085938 18.472656 "></path>
    <path style=" stroke:none;fill-rule:nonzero;fill:rgb(100,100%,100%);fill-opacity:1;" d="M 68.882812 31.152344 L 69.523438 30.066406 C 69.570312 29.984375 69.542969 29.878906 69.464844 29.832031 C 69.382812 29.785156 69.277344 29.8125 69.230469 29.894531 L 68.519531 31.105469 C 68.472656 31.183594 68.496094 31.28125 68.570312 31.332031 C 68.621094 31.367188 69.847656 32.238281 68.863281 33.917969 C 68.816406 34 68.84375 34.101562 68.921875 34.152344 C 68.949219 34.167969 68.980469 34.175781 69.011719 34.175781 C 69.066406 34.175781 69.125 34.144531 69.15625 34.089844 C 70.105469 32.472656 69.230469 31.460938 68.886719 31.152344 Z M 68.882812 31.152344 "></path>
  </g>
</svg>
